<svg xmlns="http://www.w3.org/2000/svg" xmlns:xlink="http://www.w3.org/1999/xlink" version="1.1" x="0px" y="0px" viewBox="0 0 75 100" style="enable-background:new 0 0 100 100;" xml:space="preserve"><path d="M62.4,42.3L55,76.1c-0.3,1.4-1.2,2.6-2.5,3.3C51.8,79.8,51,80,50.1,80c-0.5,0-0.9-0.1-1.4-0.2c-1.3-0.4-2.3-1.2-3-2.4  l-4.2-7.6c0-0.1-0.1-0.2-0.2-0.2c-0.3-0.3-0.6-0.3-0.7-0.3c-0.2,0-0.5,0-0.7,0.3l-7.1,7.1c-0.9,0.9-2.2,1.5-3.5,1.5  s-2.6-0.5-3.5-1.5L22,72.9c-0.9-0.9-1.5-2.2-1.5-3.5c0-1.3,0.5-2.6,1.5-3.5l7.1-7.1c0.1-0.1,0.1-0.1,0.2-0.2  c0.2-0.3,0.1-0.6,0.1-0.8s-0.2-0.4-0.5-0.6L21.3,53c-1.3-0.7-2.2-1.9-2.5-3.3c-0.6-2.7,1.1-5.4,3.8-5.9l33.7-7.3  c0.7-0.2,1.4-0.2,2.1,0C61.2,37,62.9,39.6,62.4,42.3z M83.2,49.2c0.4-1-0.1-2.2-1.1-2.6l-8.3-3.4c-1-0.4-2.2,0.1-2.6,1.1  c-0.4,1,0.1,2.2,1.1,2.6l8.3,3.4c0.2,0.1,0.5,0.1,0.7,0.1C82.1,50.5,82.9,50,83.2,49.2z M69.3,32.5l5.8-6.9c0.7-0.8,0.6-2.1-0.2-2.8  C74,22.1,72.7,22.2,72,23l-5.8,6.9c-0.7,0.8-0.6,2.1,0.2,2.8c0.4,0.3,0.8,0.5,1.3,0.5C68.3,33.2,68.9,33,69.3,32.5z M54.6,29.7  c0.9-0.6,1.2-1.8,0.6-2.8l-4.8-7.6c-0.6-0.9-1.8-1.2-2.8-0.6c-0.9,0.6-1.2,1.8-0.6,2.8l4.8,7.6c0.4,0.6,1,0.9,1.7,0.9  C53.9,30,54.2,29.9,54.6,29.7z"/></svg>